<?xml version="1.0" encoding="UTF-8"?>
<svg xmlns="http://www.w3.org/2000/svg" viewBox="0 0 1040 710" width="100%" height="100%" version="1.1">
  <defs>
    <filter id="glow-shadow" x="-30%" y="-30%" width="160%" height="160%">
      <feDropShadow dx="0" dy="3" stdDeviation="6" flood-color="#000000" flood-opacity="0.55"/>
    </filter>
    <filter id="outer-glow-shadow" x="-20%" y="-20%" width="140%" height="140%">
      <feDropShadow dx="0" dy="4" stdDeviation="9" flood-color="#000000" flood-opacity="0.4"/>
    </filter>
  </defs>
  <rect width="100%" height="100%" fill="#FFFFFF"/>
  <!-- FPGA enclosure -->
  <polygon points="60,120 944,120 980,156 980,622 96,622 60,586" fill="#F2F2F2" stroke="#7C7C7C" stroke-width="1.5" filter="url(#outer-glow-shadow)"/>
  <text x="100" y="592" text-anchor="start" font-family="'SFMono-Regular', Consolas, 'Liberation Mono', Menlo, monospace" font-size="24" font-weight="400" fill="#4A4A4A">Arty A7-100T SoC</text>
  <text x="100" y="610" text-anchor="start" font-family="'SFMono-Regular', Consolas, 'Liberation Mono', Menlo, monospace" font-size="13" font-weight="400" fill="#4A4A4A">xc7a100tcsg324-1</text>
  <!-- FPGA pins -->
  <polygon points="590,60 744,60 755,71 755,114 601,114 590,103" fill="#FFFFFF" stroke="#7C7C7C" stroke-width="1.2" filter="url(#glow-shadow)"/>
  <text x="672.5" y="84.0" text-anchor="middle" font-family="'Segoe UI', -apple-system, BlinkMacSystemFont, Helvetica, Arial, sans-serif" font-size="15" font-weight="400" fill="#000000">clk100mhz_i</text>
  <text x="672.5" y="103.0" text-anchor="middle" font-family="'Segoe UI', -apple-system, BlinkMacSystemFont, Helvetica, Arial, sans-serif" font-size="12" font-weight="400" fill="#4A4A4A">100 MHz · pin E3</text>
  <polygon points="780,60 934,60 945,71 945,114 791,114 780,103" fill="#FFFFFF" stroke="#7C7C7C" stroke-width="1.2" filter="url(#glow-shadow)"/>
  <text x="862.5" y="84.0" text-anchor="middle" font-family="'Segoe UI', -apple-system, BlinkMacSystemFont, Helvetica, Arial, sans-serif" font-size="15" font-weight="400" fill="#000000">rst_n</text>
  <text x="862.5" y="103.0" text-anchor="middle" font-family="'Segoe UI', -apple-system, BlinkMacSystemFont, Helvetica, Arial, sans-serif" font-size="12" font-weight="400" fill="#4A4A4A">RESET button · pin C2</text>
  <polygon points="352,638 516,638 527,649 527,692 363,692 352,681" fill="#FFFFFF" stroke="#7C7C7C" stroke-width="1.2" filter="url(#glow-shadow)"/>
  <text x="439.5" y="662.0" text-anchor="middle" font-family="'Segoe UI', -apple-system, BlinkMacSystemFont, Helvetica, Arial, sans-serif" font-size="15" font-weight="400" fill="#000000">uart_tx / uart_rx</text>
  <text x="439.5" y="681.0" text-anchor="middle" font-family="'Segoe UI', -apple-system, BlinkMacSystemFont, Helvetica, Arial, sans-serif" font-size="12" font-weight="400" fill="#4A4A4A">pin D10 / pin A9</text>
  <!-- clocking and reset -->
  <polygon points="590,142 741,142 755,156 755,214 604,214 590,200" fill="#FFFFFF" stroke="#7C7C7C" stroke-width="1.2" filter="url(#glow-shadow)"/>
  <text x="672.5" y="175.0" text-anchor="middle" font-family="'Segoe UI', -apple-system, BlinkMacSystemFont, Helvetica, Arial, sans-serif" font-size="16" font-weight="400" fill="#000000">xc7pll</text>
  <text x="672.5" y="194.0" text-anchor="middle" font-family="'Segoe UI', -apple-system, BlinkMacSystemFont, Helvetica, Arial, sans-serif" font-size="12.5" font-weight="400" fill="#4A4A4A">50 / 100 / 200 MHz</text>
  <polygon points="780,142 931,142 945,156 945,214 794,214 780,200" fill="#FFFFFF" stroke="#7C7C7C" stroke-width="1.2" filter="url(#glow-shadow)"/>
  <text x="862.5" y="175.0" text-anchor="middle" font-family="'Segoe UI', -apple-system, BlinkMacSystemFont, Helvetica, Arial, sans-serif" font-size="16" font-weight="400" fill="#000000">rstctrl</text>
  <text x="862.5" y="194.0" text-anchor="middle" font-family="'Segoe UI', -apple-system, BlinkMacSystemFont, Helvetica, Arial, sans-serif" font-size="12.5" font-weight="400" fill="#4A4A4A">1 µs pulse · 4 s hold</text>
  <line x1="672" y1="114" x2="672" y2="136" stroke="#595959" stroke-width="1.2"/>
  <polygon points="672,142 668.28,136 675.72,136" fill="#595959"/>
  <line x1="862" y1="114" x2="862" y2="136" stroke="#595959" stroke-width="1.2"/>
  <polygon points="862,142 858.28,136 865.72,136" fill="#595959"/>
  <!-- ccx core complex -->
  <polygon points="115,150 537,150 555,168 555,350 133,350 115,332" fill="#E4E4E4" stroke="#7C7C7C" stroke-width="1.2" filter="url(#glow-shadow)"/>
  <text x="135" y="176" text-anchor="start" font-family="'Segoe UI', -apple-system, BlinkMacSystemFont, Helvetica, Arial, sans-serif" font-size="14" font-weight="400" fill="#4A4A4A">ccx · FonTamPU core complex (PUCNT = 1)</text>
  <polygon points="145,195 341,195 355,209 355,285 159,285 145,271" fill="#B3B3B3" stroke="#7C7C7C" stroke-width="1.2" filter="url(#glow-shadow)"/>
  <text x="250.0" y="237.0" text-anchor="middle" font-family="'Segoe UI', -apple-system, BlinkMacSystemFont, Helvetica, Arial, sans-serif" font-size="16" font-weight="400" fill="#000000">pu.sv — RV32IMA</text>
  <text x="250.0" y="256.0" text-anchor="middle" font-family="'Segoe UI', -apple-system, BlinkMacSystemFont, Helvetica, Arial, sans-serif" font-size="12.5" font-weight="400" fill="#4A4A4A">4-stage, in-order</text>
  <polygon points="380,190 514,190 525,201 525,240 391,240 380,229" fill="#FFFFFF" stroke="#7C7C7C" stroke-width="1.2" filter="url(#glow-shadow)"/>
  <text x="452.5" y="220.5" text-anchor="middle" font-family="'Segoe UI', -apple-system, BlinkMacSystemFont, Helvetica, Arial, sans-serif" font-size="14" font-weight="400" fill="#000000">I-cache 16 KB</text>
  <polygon points="380,255 514,255 525,266 525,305 391,305 380,294" fill="#FFFFFF" stroke="#7C7C7C" stroke-width="1.2" filter="url(#glow-shadow)"/>
  <text x="452.5" y="285.5" text-anchor="middle" font-family="'Segoe UI', -apple-system, BlinkMacSystemFont, Helvetica, Arial, sans-serif" font-size="14" font-weight="400" fill="#000000">D-cache 16 KB</text>
  <line x1="355" y1="215" x2="380" y2="215" stroke="#595959" stroke-width="1.2"/>
  <line x1="355" y1="280" x2="380" y2="280" stroke="#595959" stroke-width="1.2"/>
  <line x1="590" y1="178" x2="561" y2="178" stroke="#595959" stroke-width="1.2"/>
  <polygon points="555,178 561,174.28 561,181.72" fill="#595959"/>
  <line x1="862" y1="214" x2="862" y2="325" stroke="#595959" stroke-width="1.2"/>
  <line x1="862" y1="325" x2="561" y2="325" stroke="#595959" stroke-width="1.2"/>
  <polygon points="555,325 561,321.28 561,328.72" fill="#595959"/>
  <!-- wishbone bus -->
  <line x1="230" y1="410" x2="860" y2="410" stroke="#595959" stroke-width="1.5"/>
  <text x="755" y="384" text-anchor="middle" font-family="'Segoe UI', -apple-system, BlinkMacSystemFont, Helvetica, Arial, sans-serif" font-size="14" font-weight="600" fill="#000000">Wishbone Bus · 32-bit</text>
  <text x="755" y="401" text-anchor="middle" font-family="'Segoe UI', -apple-system, BlinkMacSystemFont, Helvetica, Arial, sans-serif" font-size="12.5" font-weight="400" fill="#4A4A4A">lib/wb_mux.sv · address decode</text>
  <line x1="315" y1="350" x2="315" y2="410" stroke="#595959" stroke-width="1.2"/>
  <text x="327" y="382" text-anchor="start" font-family="'Segoe UI', -apple-system, BlinkMacSystemFont, Helvetica, Arial, sans-serif" font-size="12.5" font-weight="400" fill="#4A4A4A">Wishbone master</text>
  <line x1="230" y1="410" x2="230" y2="450" stroke="#595959" stroke-width="1.2"/>
  <line x1="440" y1="410" x2="440" y2="450" stroke="#595959" stroke-width="1.2"/>
  <line x1="650" y1="410" x2="650" y2="450" stroke="#595959" stroke-width="1.2"/>
  <line x1="860" y1="410" x2="860" y2="450" stroke="#595959" stroke-width="1.2"/>
  <!-- slaves -->
  <polygon points="142,450 303,450 317,464 317,530 156,530 142,516" fill="#FFFFFF" stroke="#7C7C7C" stroke-width="1.2" filter="url(#glow-shadow)"/>
  <text x="229.5" y="487.0" text-anchor="middle" font-family="'Segoe UI', -apple-system, BlinkMacSystemFont, Helvetica, Arial, sans-serif" font-size="16" font-weight="400" fill="#000000">irqctrl</text>
  <text x="229.5" y="506.0" text-anchor="middle" font-family="'SFMono-Regular', Consolas, 'Liberation Mono', Menlo, monospace" font-size="12.5" font-weight="400" fill="#4A4A4A">0x00000F00</text>
  <polygon points="352,450 513,450 527,464 527,530 366,530 352,516" fill="#FFFFFF" stroke="#7C7C7C" stroke-width="1.2" filter="url(#glow-shadow)"/>
  <text x="439.5" y="487.0" text-anchor="middle" font-family="'Segoe UI', -apple-system, BlinkMacSystemFont, Helvetica, Arial, sans-serif" font-size="16" font-weight="400" fill="#000000">serial_uart</text>
  <text x="439.5" y="506.0" text-anchor="middle" font-family="'SFMono-Regular', Consolas, 'Liberation Mono', Menlo, monospace" font-size="12.5" font-weight="400" fill="#4A4A4A">0x00000F80</text>
  <polygon points="562,450 723,450 737,464 737,530 576,530 562,516" fill="#FFFFFF" stroke="#7C7C7C" stroke-width="1.2" filter="url(#glow-shadow)"/>
  <text x="649.5" y="487.0" text-anchor="middle" font-family="'Segoe UI', -apple-system, BlinkMacSystemFont, Helvetica, Arial, sans-serif" font-size="16" font-weight="400" fill="#000000">sram · 256 KB</text>
  <text x="649.5" y="506.0" text-anchor="middle" font-family="'SFMono-Regular', Consolas, 'Liberation Mono', Menlo, monospace" font-size="12.5" font-weight="400" fill="#4A4A4A">0x00001000</text>
  <polygon points="772,450 933,450 947,464 947,530 786,530 772,516" fill="#FFFFFF" stroke="#7C7C7C" stroke-width="1.2" filter="url(#glow-shadow)"/>
  <text x="859.5" y="487.0" text-anchor="middle" font-family="'Segoe UI', -apple-system, BlinkMacSystemFont, Helvetica, Arial, sans-serif" font-size="16" font-weight="400" fill="#000000">dfltdev</text>
  <text x="859.5" y="506.0" text-anchor="middle" font-family="'Segoe UI', -apple-system, BlinkMacSystemFont, Helvetica, Arial, sans-serif" font-size="12" font-weight="400" fill="#4A4A4A">catch unmapped addresses</text>
  <!-- interrupt paths -->
  <line x1="390" y1="530" x2="390" y2="552" stroke="#595959" stroke-width="1.2" stroke-dasharray="5 4"/>
  <line x1="390" y1="552" x2="245" y2="552" stroke="#595959" stroke-width="1.2" stroke-dasharray="5 4"/>
  <line x1="245" y1="552" x2="245" y2="536" stroke="#595959" stroke-width="1.2" stroke-dasharray="5 4"/>
  <polygon points="245,530 241.28,536 248.72,536" fill="#595959"/>
  <text x="397" y="546" text-anchor="start" font-family="'Segoe UI', -apple-system, BlinkMacSystemFont, Helvetica, Arial, sans-serif" font-size="12.5" font-weight="400" fill="#4A4A4A">IRQ src 1</text>
  <line x1="880" y1="530" x2="880" y2="566" stroke="#595959" stroke-width="1.2" stroke-dasharray="5 4"/>
  <line x1="880" y1="566" x2="215" y2="566" stroke="#595959" stroke-width="1.2" stroke-dasharray="5 4"/>
  <line x1="215" y1="566" x2="215" y2="536" stroke="#595959" stroke-width="1.2" stroke-dasharray="5 4"/>
  <polygon points="215,530 211.28,536 218.72,536" fill="#595959"/>
  <text x="887" y="546" text-anchor="start" font-family="'Segoe UI', -apple-system, BlinkMacSystemFont, Helvetica, Arial, sans-serif" font-size="12.5" font-weight="400" fill="#4A4A4A">IRQ src 0</text>
  <line x1="142" y1="475" x2="92" y2="475" stroke="#595959" stroke-width="1.2" stroke-dasharray="5 4"/>
  <line x1="92" y1="475" x2="92" y2="255" stroke="#595959" stroke-width="1.2" stroke-dasharray="5 4"/>
  <line x1="92" y1="255" x2="109" y2="255" stroke="#595959" stroke-width="1.2" stroke-dasharray="5 4"/>
  <polygon points="115,255 109,251.28 109,258.72" fill="#595959"/>
  <text x="80" y="365" text-anchor="middle" font-family="'Segoe UI', -apple-system, BlinkMacSystemFont, Helvetica, Arial, sans-serif" font-size="12.5" fill="#4A4A4A" transform="rotate(-90 80 365)">machine external IRQ</text>
  <path d="M480,536 L480,560 A6,6 0 0 1 480,572 L480,632" fill="none" stroke="#595959" stroke-width="1.2"/>
  <polygon points="480,530 476.28,536 483.72,536" fill="#595959"/>
  <polygon points="480,638 476.28,632 483.72,632" fill="#595959"/>
</svg>
